<?xml version="1.0" encoding="iso-8859-1"?>
<!-- Generator: Adobe Illustrator 19.0.0, SVG Export Plug-In . SVG Version: 6.00 Build 0)  -->
<svg version="1.1" id="Capa_1" xmlns="http://www.w3.org/2000/svg" xmlns:xlink="http://www.w3.org/1999/xlink" x="0px" y="0px"
	 viewBox="0 0 511.998 511.998" style="enable-background:new 0 0 511.998 511.998;" xml:space="preserve">
<g>
	<g>
		<path d="M510.794,285.265c0.004,0-38.823-59.193-38.828-59.202c-0.675-1.028-1.649-1.914-2.729-2.498l-68.204-36.54v-28.138
			c0,0,35.552,0,35.571,0c4.143,0,7.501-3.358,7.501-7.501c0-2.005-0.786-3.827-2.068-5.173l-50.181-59.948
			c12.273-6.058,23.578-14.108,33.303-23.912c9.401-9.478,9.33-25.241-0.141-34.634c-9.478-9.4-25.246-9.325-34.635,0.141
			c-14.141,14.256-33.766,22.431-53.843,22.431H175.46c-20.078,0-39.703-8.176-53.843-22.431
			c-9.394-9.471-25.174-9.526-34.634-0.142c-9.471,9.395-9.524,25.175-0.142,34.634c9.724,9.804,21.029,17.854,33.303,23.912
			l-50.482,60.305c-1.87,2.234-2.277,5.35-1.044,7.989c1.232,2.639,3.882,4.326,6.796,4.326h35.553v28.138
			c0,0-68.181,36.527-68.213,36.545c-1.077,0.604-2.049,1.467-2.727,2.501c0,0-38.793,59.142-38.827,59.193
			c-3.214,4.901,0.432,11.614,6.272,11.614h31.317v186.907c0,4.142,3.358,7.501,7.501,7.501h29.124c4.142,0,7.501-3.358,7.501-7.501
			v-28.77h53.448v28.77c0,4.142,3.357,7.501,7.501,7.501h29.124c4.143,0,7.501-3.358,7.501-7.501v-28.77h53.447v28.77
			c0,4.142,3.357,7.501,7.501,7.501h29.124c4.143,0,7.501-3.358,7.501-7.501v-28.77h53.447v28.77c0,4.142,3.357,7.501,7.501,7.501
			h29.124c4.143,0,7.501-3.358,7.501-7.501v-28.77h53.448v28.77c0,4.142,3.357,7.501,7.501,7.501h29.124
			c4.143,0,7.501-3.358,7.501-7.501V296.879c0,0,31.258,0,31.316,0C510.383,296.879,514.016,290.176,510.794,285.265z M97.492,51.79
			c-1.781-1.797-2.679-4.258-2.67-6.721c0.028-8.256,10.308-12.525,16.144-6.643c16.937,17.075,40.443,26.869,64.494,26.869h161.078
			c24.05,0,47.556-9.793,64.494-26.869c3.641-3.671,9.753-3.69,13.418-0.054c3.664,3.635,3.682,9.761,0.054,13.418
			c-10.681,10.769-23.527,19.135-37.497,24.682c-0.016,0.006-0.034,0.009-0.05,0.015c-12.768,5.063-26.676,7.785-40.419,7.785
			H175.46c-13.783,0-27.619-2.665-40.418-7.785c-0.019-0.008-0.039-0.01-0.058-0.018C121.016,70.923,108.172,62.558,97.492,51.79z
			 M91.476,143.885l43.152-51.549c0.125,0.044,0.253,0.08,0.378,0.123c12.953,4.483,26.745,6.814,40.454,6.814
			c0,0,161.078,0,161.08,0c13.715,0,27.441-2.331,40.404-6.798c0.142-0.049,0.285-0.089,0.427-0.139l43.151,51.549H320.507
			l-60.967-32.662c-2.213-1.186-4.872-1.186-7.085,0l-60.967,32.662H91.476z M386.029,158.887v20.101l-37.521-20.101H386.029z
			 M163.49,158.886l-37.52,20.101v-20.101H163.49z M53.791,476.285V296.879h14.123v179.406H53.791z M165.487,476.285h-14.122
			v-21.269h14.122V476.285z M263.06,476.285h-14.122v-21.269h14.122V476.285z M360.633,476.285H346.51v-21.269h14.122V476.285z
			 M429.082,440.015H82.916v-14.123h346.166V440.015z M82.916,410.891V296.879h151.02v114.012H82.916z M248.938,410.891V296.879
			h14.122v114.012H248.938z M318.401,339.884v28.003h-40.339v-28.003H318.401z M278.062,324.882v-28.003h40.339v28.003H278.062z
			 M318.401,382.888v28.003h-40.339v-28.003H318.401z M373.742,339.884v28.003h-40.339v-28.003H373.742z M333.403,324.882v-28.003
			h40.339v28.003H333.403z M373.742,382.888v28.003h-40.339v-28.003H373.742z M429.083,410.891h-40.339v-28.003h40.339V410.891z
			 M429.083,367.887h-40.339v-28.003h40.339V367.887z M429.083,324.882h-40.339v-28.003h40.339V324.882z M458.207,476.285h-14.122
			V296.879h14.122V476.285z M21.363,281.877l28.992-44.2h100.596c4.143,0,7.501-3.358,7.501-7.501s-3.357-7.501-7.501-7.501H76.189
			l179.81-96.331l179.81,96.331H180.953c-4.143,0-7.501,3.358-7.501,7.501s3.357,7.501,7.501,7.501h280.689l28.992,44.2H21.363z"/>
	</g>
</g>
<g>
</g>
<g>
</g>
<g>
</g>
<g>
</g>
<g>
</g>
<g>
</g>
<g>
</g>
<g>
</g>
<g>
</g>
<g>
</g>
<g>
</g>
<g>
</g>
<g>
</g>
<g>
</g>
<g>
</g>
</svg>
